<?xml version="1.0" standalone="no"?>
<!DOCTYPE svg PUBLIC "-//W3C//DTD SVG 20010904//EN"
 "http://www.w3.org/TR/2001/REC-SVG-20010904/DTD/svg10.dtd">
<svg version="1.0" xmlns="http://www.w3.org/2000/svg"
 width="500.000000pt" height="500.000000pt" viewBox="0 0 500.000000 500.000000"
 preserveAspectRatio="xMidYMid meet">

<g transform="translate(0.000000,500.000000) scale(0.100000,-0.100000)"
fill="#000000" stroke="none">
<path d="M345 3111 c-51 -23 -101 -79 -114 -128 -7 -24 -11 -185 -11 -421 0
-323 2 -388 15 -420 20 -47 50 -78 100 -105 39 -21 54 -22 410 -25 440 -4 456
-2 526 68 31 31 50 60 54 81 3 19 5 215 3 436 l-3 401 -30 43 c-17 24 -49 52
-75 65 -45 23 -48 23 -440 23 -361 1 -398 -1 -435 -18z m530 -105 c161 -42
277 -147 325 -292 18 -55 22 -82 18 -162 -3 -84 -8 -107 -37 -169 -77 -167
-267 -279 -436 -259 -81 10 -97 14 -165 48 -270 133 -328 503 -113 716 113
111 267 156 408 118z"/>
<path d="M815 2913 c-32 -7 -126 -54 -175 -86 -110 -73 -148 -131 -126 -194
24 -70 46 -78 229 -81 173 -4 197 -10 197 -56 0 -65 -81 -106 -208 -106 -111
0 -156 22 -191 93 -13 27 -27 45 -32 40 -5 -5 -11 -40 -14 -78 -5 -60 -3 -75
15 -103 79 -126 425 -96 524 45 38 55 43 145 10 190 -37 49 -67 58 -219 61
-77 2 -146 8 -152 14 -60 49 90 179 171 149 35 -14 60 -55 52 -86 -5 -19 -2
-25 9 -25 26 0 48 67 43 129 -7 82 -52 113 -133 94z"/>
<path d="M2243 3109 c-42 -12 -63 -44 -63 -95 0 -50 29 -84 90 -104 50 -17 74
-42 65 -69 -15 -47 -70 -47 -95 -1 -7 13 -21 20 -42 20 -29 0 -30 -1 -24 -32
12 -63 85 -93 160 -67 32 11 45 23 59 53 17 35 17 45 6 78 -11 34 -21 42 -81
70 -38 18 -70 40 -74 50 -14 47 61 65 81 21 7 -17 18 -23 43 -23 30 0 32 2 26
28 -9 37 -23 53 -61 69 -37 15 -45 15 -90 2z"/>
<path d="M3362 3109 c-41 -12 -74 -62 -66 -103 8 -47 21 -62 71 -85 74 -33 78
-36 81 -67 4 -39 -26 -59 -63 -42 -13 6 -27 19 -30 30 -9 27 -65 25 -65 -2 0
-70 97 -111 175 -75 37 18 55 51 55 100 0 45 -32 80 -94 102 -57 21 -77 44
-60 71 17 26 67 22 79 -5 7 -17 18 -23 42 -23 18 0 33 2 33 4 0 1 -5 17 -11
34 -18 53 -83 79 -147 61z"/>
<path d="M1550 2935 l0 -175 30 0 c29 0 29 1 32 63 l3 62 45 5 c80 10 110 38
110 105 0 83 -44 115 -156 115 l-64 0 0 -175z m144 99 c35 -35 -1 -98 -52 -92
-25 3 -27 7 -30 56 l-3 52 35 0 c19 0 42 -7 50 -16z"/>
<path d="M1790 3080 c0 -29 2 -30 45 -30 l45 0 0 -145 0 -145 30 0 30 0 2 128
c0 70 1 134 2 142 1 10 14 16 44 18 39 3 42 5 42 33 l0 29 -120 0 -120 0 0
-30z"/>
<path d="M2460 3093 c-1 -10 -2 -89 -3 -176 l-2 -157 103 0 102 0 0 30 0 30
-71 0 -70 0 3 43 3 42 58 3 c56 3 57 4 57 32 0 30 0 30 -61 30 l-60 0 3 38 3
37 68 3 c67 3 67 3 67 32 l0 30 -100 0 c-88 0 -100 -2 -100 -17z"/>
<path d="M2710 2935 l0 -175 35 0 35 0 0 65 c0 62 1 65 23 65 20 0 29 -11 52
-65 26 -62 29 -65 61 -65 19 0 34 3 34 8 -1 4 -16 36 -34 71 l-32 63 28 28
c50 50 31 147 -33 169 -18 6 -63 11 -100 11 l-69 0 0 -175z m148 103 c7 -7 12
-24 12 -38 0 -35 -17 -50 -57 -50 -33 0 -33 0 -33 50 0 50 0 50 33 50 18 0 38
-5 45 -12z"/>
<path d="M3076 3088 c-4 -13 -12 -39 -17 -58 -17 -59 -30 -104 -39 -135 -5
-16 -13 -46 -18 -65 -5 -19 -13 -43 -17 -52 -6 -15 -2 -18 29 -18 32 0 36 3
44 33 8 31 10 32 65 35 51 3 57 1 57 -17 0 -39 11 -51 47 -51 31 0 34 2 28 23
-19 72 -28 105 -35 127 -4 14 -13 45 -20 70 -36 127 -34 125 -78 128 -34 3
-40 0 -46 -20z m67 -130 c8 -35 14 -64 12 -66 -2 -2 -18 -2 -37 0 l-35 3 15
63 c8 34 18 62 22 62 4 0 14 -28 23 -62z"/>
<path d="M3570 2935 l0 -175 35 0 35 0 0 175 0 175 -35 0 -35 0 0 -175z"/>
<path d="M1520 2616 c0 -21 5 -25 38 -28 20 -2 38 -9 38 -15 1 -7 2 -63 3
-124 1 -108 1 -110 24 -107 21 3 22 7 25 126 l3 122 34 0 c31 0 35 3 35 25 l0
25 -100 0 c-99 0 -100 0 -100 -24z"/>
<path d="M1762 2510 c3 -118 5 -131 25 -152 33 -32 112 -32 147 1 25 24 26 28
26 153 l0 128 -25 0 -25 0 0 -104 c0 -57 -3 -112 -6 -120 -10 -26 -41 -38 -64
-26 -18 10 -20 21 -20 130 l0 120 -31 0 -31 0 4 -130z"/>
<path d="M2010 2491 l0 -151 25 0 25 0 0 102 c0 57 4 98 9 93 4 -6 23 -52 42
-102 l33 -93 38 0 38 0 0 150 0 150 -25 0 c-24 0 -24 -1 -27 -101 l-3 -101
-40 98 c-41 98 -41 99 -78 102 l-37 3 0 -150z"/>
<path d="M2312 2624 c-35 -24 -52 -68 -52 -134 0 -116 65 -180 154 -150 41 13
66 59 66 119 l0 41 -51 0 c-47 0 -50 -2 -47 -22 2 -16 9 -22 21 -20 26 4 24
-54 -3 -68 -48 -26 -81 12 -81 93 0 77 14 107 51 107 19 0 34 -7 42 -20 15
-23 58 -27 58 -6 0 62 -101 100 -158 60z"/>
<path d="M2567 2629 c-29 -17 -47 -72 -47 -140 0 -76 21 -122 65 -143 39 -19
39 -19 88 -5 43 12 67 55 67 120 l0 39 -55 0 c-48 0 -55 -2 -55 -20 0 -11 6
-21 13 -21 6 -1 19 -2 27 -3 20 -1 15 -47 -7 -63 -24 -18 -40 -16 -63 7 -16
16 -20 33 -20 86 0 36 5 74 10 85 15 26 66 26 80 -1 6 -12 21 -20 35 -20 33 0
33 33 0 65 -19 20 -34 25 -72 25 -26 0 -56 -5 -66 -11z"/>
<path d="M2847 2633 c-3 -5 -19 -57 -36 -118 -17 -60 -35 -125 -40 -142 -9
-32 -8 -33 18 -33 23 0 30 6 37 33 9 30 13 32 54 32 41 0 45 -2 54 -32 7 -28
14 -33 39 -33 19 0 28 4 25 13 -3 6 -22 74 -43 150 l-39 137 -32 0 c-18 0 -35
-3 -37 -7z m52 -117 c16 -63 15 -66 -19 -66 -16 0 -30 2 -30 5 0 22 23 105 30
105 4 0 13 -20 19 -44z"/>
<path d="M3030 2490 l0 -150 85 0 c84 0 85 0 85 25 0 24 -3 25 -55 25 l-55 0
0 125 0 125 -30 0 -30 0 0 -150z"/>
<path d="M3320 2490 l0 -150 30 0 30 0 -4 106 c-4 113 3 123 23 34 30 -138 32
-140 61 -140 23 0 29 5 34 33 19 98 39 177 43 173 3 -3 5 -50 4 -106 l-2 -100
26 0 25 0 0 150 0 150 -39 0 c-38 0 -39 -1 -50 -47 -7 -27 -16 -62 -21 -79 -6
-17 -10 -42 -10 -57 0 -55 -16 -24 -39 78 l-24 105 -44 0 -43 0 0 -150z"/>
<path d="M3671 2495 c-22 -79 -41 -147 -41 -150 0 -4 12 -5 27 -3 21 2 29 10
37 36 8 29 13 32 45 32 43 0 61 -14 61 -47 0 -19 5 -23 34 -23 l34 0 -34 109
c-18 61 -38 128 -44 150 -10 37 -14 41 -44 41 l-33 0 -42 -145z m92 13 l15
-58 -29 0 c-23 0 -29 4 -29 21 0 22 21 101 26 97 1 -2 9 -29 17 -60z"/>
<path d="M3900 2490 l0 -150 25 0 25 0 0 103 c0 116 4 115 51 -15 l32 -88 38
0 39 0 0 150 0 150 -25 0 c-24 0 -24 -1 -27 -97 l-3 -98 -31 65 c-17 36 -36
80 -43 98 -12 27 -18 32 -47 32 l-34 0 0 -150z"/>
<path d="M4158 2634 c-5 -4 -8 -72 -8 -151 l0 -143 55 0 c113 0 155 39 155
145 0 77 -17 118 -57 133 -37 15 -136 26 -145 16z m127 -70 c53 -57 21 -174
-46 -174 l-29 0 0 100 0 100 25 0 c15 0 36 -11 50 -26z"/>
<path d="M4410 2490 l0 -150 25 0 25 0 0 150 0 150 -25 0 -25 0 0 -150z"/>
<path d="M4510 2490 l0 -150 30 0 30 0 0 61 c0 52 2 60 18 57 9 -2 29 -28 45
-61 24 -50 31 -57 57 -57 l30 0 -30 61 -31 60 27 32 c33 39 28 90 -11 125 -22
18 -38 22 -96 22 l-69 0 0 -150z m134 84 c17 -44 -5 -74 -53 -74 -18 0 -21 6
-21 45 0 44 0 45 34 45 22 0 36 -6 40 -16z"/>
<path d="M4760 2490 l0 -150 25 0 c14 0 25 3 25 8 0 4 1 71 3 150 l2 142 -27
0 -28 0 0 -150z"/>
<path d="M3531 2191 c-6 -11 -8 -26 -5 -34 3 -9 -2 -27 -12 -42 -13 -20 -15
-31 -6 -50 9 -20 17 -23 57 -22 36 2 44 5 38 17 -3 8 -6 29 -5 45 1 28 0 29
-13 11 -16 -22 -16 -21 -19 48 -1 44 -19 58 -35 27z m29 -16 c0 -8 -4 -15 -10
-15 -5 0 -10 7 -10 15 0 8 5 15 10 15 6 0 10 -7 10 -15z m-2 -85 c10 -17 10
-21 -3 -27 -21 -7 -39 11 -32 31 8 22 20 20 35 -4z"/>
<path d="M1540 2120 c0 -64 3 -80 15 -80 10 0 15 10 15 28 0 22 7 30 30 39 24
9 30 17 30 40 0 38 -16 53 -57 53 l-33 0 0 -80z m65 30 c0 -16 -6 -26 -17 -28
-14 -3 -18 3 -18 28 0 25 4 31 18 28 11 -2 17 -12 17 -28z"/>
<path d="M2344 2186 c-3 -8 -4 -43 -2 -77 3 -61 4 -64 30 -67 63 -7 105 91 58
138 -23 23 -78 27 -86 6z m70 -22 c13 -34 6 -83 -13 -94 -30 -16 -31 -14 -31
50 0 52 2 60 19 60 10 0 22 -7 25 -16z"/>
<path d="M2773 2120 c0 -47 2 -66 4 -42 2 23 2 61 0 85 -2 23 -4 4 -4 -43z"/>
<path d="M3680 2120 c0 -91 17 -109 22 -22 l3 57 14 -58 c8 -32 19 -56 24 -54
6 2 16 21 22 43 12 40 25 32 22 -15 -1 -13 4 -26 11 -28 9 -4 12 16 12 76 0
74 -2 81 -20 81 -14 0 -21 -9 -26 -37 -12 -66 -20 -70 -35 -14 -9 38 -17 51
-31 51 -16 0 -18 -9 -18 -80z"/>
<path d="M4745 2177 c-15 -32 -4 -118 17 -131 9 -5 21 -7 25 -2 4 4 0 12 -10
17 -22 13 -24 79 -2 79 8 0 15 5 15 10 0 6 -6 10 -14 10 -8 0 -16 9 -18 20 -3
19 -4 19 -13 -3z"/>
<path d="M2140 2176 c0 -8 -6 -17 -12 -20 -10 -5 -10 -7 0 -12 7 -3 12 -24 12
-50 0 -31 5 -46 15 -51 9 -3 19 -2 23 2 4 4 1 10 -5 12 -8 3 -13 21 -13 43 0
21 6 41 13 44 10 5 10 7 0 12 -7 3 -13 12 -13 20 0 8 -4 14 -10 14 -5 0 -10
-6 -10 -14z"/>
<path d="M3410 2175 c0 -8 -4 -15 -9 -15 -13 0 -1 -93 14 -109 7 -7 18 -10 25
-6 8 5 9 10 2 14 -21 13 -24 57 -5 76 13 13 14 20 5 23 -6 2 -12 10 -12 18 0
8 -4 14 -10 14 -5 0 -10 -7 -10 -15z"/>
<path d="M1650 2104 c0 -29 5 -56 10 -59 6 -4 10 8 10 29 0 44 9 66 26 66 8 0
14 4 14 8 0 5 -13 9 -30 9 -30 0 -30 -1 -30 -53z"/>
<path d="M1742 2148 c-17 -17 -15 -83 3 -98 41 -34 89 21 69 79 -10 29 -51 40
-72 19z m48 -49 c0 -33 -3 -40 -17 -37 -32 6 -30 78 2 78 11 0 15 -11 15 -41z"/>
<path d="M1840 2079 c0 -46 4 -79 10 -79 6 0 10 10 10 23 0 18 5 23 28 22 26
0 27 2 27 55 l0 55 -37 2 -38 1 0 -79z m58 24 c-2 -26 -8 -38 -18 -38 -10 0
-16 12 -18 38 -3 32 0 37 18 37 18 0 21 -5 18 -37z"/>
<path d="M1949 2129 c-10 -27 -10 -36 2 -58 18 -31 62 -36 67 -8 3 16 1 17
-17 5 -18 -11 -23 -11 -31 2 -13 20 -3 30 31 30 31 0 35 9 19 41 -17 31 -55
24 -71 -12z m54 -4 c1 -5 -6 -11 -15 -13 -11 -2 -18 3 -18 13 0 17 30 18 33 0z"/>
<path d="M2050 2098 c0 -32 4 -58 10 -58 6 0 10 21 10 46 0 37 4 47 20 51 30
8 24 22 -10 21 -30 -1 -30 -1 -30 -60z"/>
<path d="M2200 2148 c0 -7 7 -35 15 -63 14 -46 14 -51 -2 -62 -21 -16 -8 -31
15 -17 15 10 52 110 52 142 0 30 -18 8 -24 -28 -7 -48 -21 -45 -30 5 -6 33
-26 50 -26 23z"/>
<path d="M2482 2148 c-7 -7 -12 -28 -12 -48 0 -39 14 -60 41 -60 19 0 45 27
35 37 -4 4 -11 1 -16 -6 -10 -17 -40 -7 -40 14 0 10 10 15 30 15 22 0 30 5 30
18 0 22 -19 42 -40 42 -9 0 -21 -5 -28 -12z m46 -20 c-3 -7 -11 -13 -18 -13
-7 0 -15 6 -17 13 -3 7 4 12 17 12 13 0 20 -5 18 -12z"/>
<path d="M2570 2142 c0 -29 23 -102 32 -102 11 0 19 18 33 71 15 57 2 67 -16
12 l-12 -38 -11 32 c-14 41 -26 52 -26 25z"/>
<path d="M2670 2140 c-16 -30 -4 -87 19 -95 25 -8 51 4 51 22 0 13 -3 13 -15
3 -18 -15 -45 -6 -45 15 0 10 10 15 31 15 27 0 30 3 27 28 -4 36 -51 44 -68
12z m50 -15 c0 -8 -6 -15 -14 -15 -17 0 -28 14 -19 24 12 12 33 6 33 -9z"/>
<path d="M2822 2148 c-16 -16 -16 -80 0 -96 30 -30 78 3 78 54 0 35 -16 54
-45 54 -12 0 -26 -5 -33 -12z m53 -28 c9 -29 -4 -62 -23 -58 -18 3 -28 39 -18
64 8 21 34 17 41 -6z"/>
<path d="M2920 2079 c0 -46 4 -79 10 -79 6 0 10 10 10 23 0 18 5 23 27 22 22
0 28 5 33 30 3 17 3 41 0 55 -5 21 -12 25 -43 27 l-37 1 0 -79z m60 21 c0 -33
-3 -40 -20 -40 -17 0 -20 7 -20 40 0 33 3 40 20 40 17 0 20 -7 20 -40z"/>
<path d="M3030 2098 c0 -32 4 -58 10 -58 6 0 10 23 10 50 0 38 4 50 15 50 11
0 15 -12 15 -50 0 -38 4 -50 15 -50 11 0 15 12 15 50 0 38 4 50 15 50 11 0 15
-12 15 -51 0 -36 4 -49 13 -47 15 6 21 41 13 83 l-6 33 -65 -1 -65 0 0 -59z"/>
<path d="M3202 2148 c-16 -16 -16 -80 0 -96 7 -7 20 -12 29 -12 20 0 45 28 34
38 -4 4 -10 1 -12 -5 -8 -22 -43 -15 -43 7 0 16 7 20 30 20 22 0 30 5 30 18 0
22 -19 42 -40 42 -9 0 -21 -5 -28 -12z m48 -24 c0 -9 -7 -14 -17 -12 -25 5
-28 28 -4 28 12 0 21 -6 21 -16z"/>
<path d="M3292 2103 c4 -75 28 -86 28 -14 0 37 4 51 14 51 15 0 26 -30 26 -74
0 -21 3 -27 11 -19 5 5 9 32 7 59 l-3 49 -43 2 -43 2 3 -56z"/>
<path d="M3847 2154 c-15 -15 -6 -24 18 -18 18 4 25 2 25 -9 0 -8 -11 -18 -24
-21 -25 -6 -42 -38 -31 -56 3 -5 22 -9 41 -7 l35 2 -3 55 c-3 51 -5 55 -28 58
-14 2 -29 0 -33 -4z m43 -74 c0 -13 -7 -20 -20 -20 -25 0 -26 16 -2 29 23 14
22 14 22 -9z"/>
<path d="M3940 2098 c0 -70 18 -78 22 -11 2 36 7 49 21 51 14 3 17 -4 17 -47
0 -28 5 -51 10 -51 6 0 10 26 10 59 l0 60 -40 -2 -40 -1 0 -58z"/>
<path d="M4053 2145 c-3 -9 -2 -19 2 -23 4 -4 10 -1 12 6 6 17 33 15 33 -2 0
-8 -11 -17 -24 -20 -26 -6 -39 -28 -30 -50 4 -10 19 -14 45 -13 l39 1 0 46 c0
25 -5 51 -12 58 -17 17 -58 15 -65 -3z m47 -65 c0 -11 -7 -20 -15 -20 -27 0
-18 30 13 39 1 1 2 -8 2 -19z"/>
<path d="M4156 2144 c-18 -47 0 -94 36 -94 10 0 18 -7 18 -16 0 -13 -7 -15
-30 -11 -23 5 -28 3 -23 -8 8 -22 60 -19 73 4 5 11 10 47 10 80 l0 61 -39 0
c-26 0 -41 -5 -45 -16z m54 -37 c0 -40 -8 -51 -27 -36 -14 12 -18 51 -6 62 17
18 33 5 33 -26z"/>
<path d="M4270 2141 c-31 -59 16 -131 58 -89 17 17 15 33 -3 18 -18 -15 -45
-6 -45 15 0 10 10 15 30 15 22 0 30 5 30 18 0 41 -51 57 -70 23z m50 -16 c0
-8 -6 -15 -14 -15 -17 0 -28 14 -19 24 12 12 33 6 33 -9z"/>
<path d="M4370 2098 c0 -37 4 -57 10 -53 6 3 10 26 10 51 0 32 4 44 15 44 11
0 15 -12 15 -44 0 -61 18 -68 22 -9 2 36 7 49 21 51 14 3 17 -4 17 -47 0 -28
5 -51 10 -51 6 0 10 26 10 59 l0 59 -65 -1 -65 0 0 -59z"/>
<path d="M4529 2134 c-23 -61 34 -124 71 -79 16 20 5 32 -14 16 -17 -15 -36
-7 -36 15 0 9 11 14 30 14 22 0 30 5 30 18 0 46 -64 59 -81 16z m54 -9 c1 -5
-6 -11 -15 -13 -11 -2 -18 3 -18 13 0 17 30 18 33 0z"/>
<path d="M4630 2100 c0 -33 4 -60 10 -60 6 0 10 15 10 34 0 44 9 66 26 66 10
0 14 -13 14 -44 0 -25 4 -47 9 -50 13 -9 18 14 13 67 l-4 47 -39 0 -39 0 0
-60z"/>
</g>
</svg>
